<?xml version="1.0" encoding="utf-8" ?>
<svg baseProfile="full" height="10cm" version="1.1" viewBox="0,0,80,80" width="10cm" xmlns="http://www.w3.org/2000/svg" xmlns:ev="http://www.w3.org/2001/xml-events" xmlns:xlink="http://www.w3.org/1999/xlink"><defs><style type="text/css"><![CDATA[
    .background { fill: white; }
    .line { stroke: black; stroke-width: .1mm; }
    .background { fill: white; }
    .back { fill: rgba(50,0,200,0.2); }
    .redsquare { fill: rgba(255,0,0,0.3); }
    .subseg { fill: rgba(0,0,200,0.3); }
    .subred { fill: rgba(255,0,0,0.3); }
]]></style></defs><rect class="background" height="100%" width="100%" x="0" y="0" /><g class="redsquare"><rect height="60" width="60" x="10" y="10" /></g><g class="back"><rect height="80" width="80" x="0" y="0" /></g><g class="subseg"><rect height="40" width="40" x="0" y="20" /></g><g class="subred"><rect height="20" width="20" x="10" y="30" /></g><g class="line"><line x1="0" x2="80" y1="0" y2="0" /><line x1="0" x2="0" y1="0" y2="80" /><line x1="0" x2="80" y1="10" y2="10" /><line x1="10" x2="10" y1="0" y2="80" /><line x1="0" x2="80" y1="20" y2="20" /><line x1="20" x2="20" y1="0" y2="80" /><line x1="0" x2="80" y1="30" y2="30" /><line x1="30" x2="30" y1="0" y2="80" /><line x1="0" x2="80" y1="40" y2="40" /><line x1="40" x2="40" y1="0" y2="80" /><line x1="0" x2="80" y1="50" y2="50" /><line x1="50" x2="50" y1="0" y2="80" /><line x1="0" x2="80" y1="60" y2="60" /><line x1="60" x2="60" y1="0" y2="80" /><line x1="0" x2="80" y1="70" y2="70" /><line x1="70" x2="70" y1="0" y2="80" /><line x1="0" x2="80" y1="80" y2="80" /><line x1="80" x2="80" y1="0" y2="80" /></g></svg>