<?xml version="1.0" encoding="utf-8" ?>
<svg baseProfile="full" height="10cm" version="1.1" viewBox="0,0,80,80" width="10cm" xmlns="http://www.w3.org/2000/svg" xmlns:ev="http://www.w3.org/2001/xml-events" xmlns:xlink="http://www.w3.org/1999/xlink"><defs><style type="text/css"><![CDATA[
    .background { fill: white; }
    .line { stroke: black; stroke-width: .1mm; }
    .background { fill: white; }
    .back { fill: rgba(50,0,200,0.2); }
    .redsquare { fill: rgba(255,0,0,0.3); }
    .subseg { fill: rgba(0,0,200,0.3); }
    .subred { fill: rgba(255,0,0,0.3); }

    @keyframes cf4FadeInOut {
    0% {
        opacity:1;
    }
    8% {
        opacity:1;
    }
    9% {
        opacity:0;
    }
    99.9999% {
        opacity:0;
    }
    100% {
        opacity:1;
    }
    }

    #cf4a {
        position:relative;
        height:10cm;
        width:10cm;
        margin:0 auto;
    }
    #cf4a g {
        position:absolute;
        left:0;
    }

    #cf4a g{
        animation-name: cf4FadeInOut;
        animation-timing-function: ease-in-out;
        animation-iteration-count: infinite;
        animation-duration: 6.5s;
    }
    
        #g0 {
        animation-delay: 0.0s;
        }
        
        #g1 {
        animation-delay: 0.5s;
        }
        
        #g2 {
        animation-delay: 1.0s;
        }
        
        #g3 {
        animation-delay: 1.5s;
        }
        
        #g4 {
        animation-delay: 2.0s;
        }
        
        #g5 {
        animation-delay: 2.5s;
        }
        
        #g6 {
        animation-delay: 3.0s;
        }
        
        #g7 {
        animation-delay: 3.5s;
        }
        
        #g8 {
        animation-delay: 4.0s;
        }
        
        #g9 {
        animation-delay: 4.5s;
        }
        
        #g10 {
        animation-delay: 5.0s;
        }
        
        #g11 {
        animation-delay: 5.5s;
        }
        
        #g12 {
        animation-delay: 6.0s;
        }
        ]]></style></defs><g id="cf4a"><g id="g12"><rect class="background" height="100%" width="100%" x="0" y="0" /><rect class="redsquare" height="40" width="40" x="20" y="20" /><rect class="back" height="60" width="60" x="10" y="10" /><rect class="subseg" height="40" width="40" x="30" y="30" /><rect class="subred" height="20" width="20" x="40" y="40" /><line class="line" x1="0" x2="80" y1="0" y2="0" /><line class="line" x1="0" x2="0" y1="0" y2="80" /><line class="line" x1="0" x2="80" y1="10" y2="10" /><line class="line" x1="10" x2="10" y1="0" y2="80" /><line class="line" x1="0" x2="80" y1="20" y2="20" /><line class="line" x1="20" x2="20" y1="0" y2="80" /><line class="line" x1="0" x2="80" y1="30" y2="30" /><line class="line" x1="30" x2="30" y1="0" y2="80" /><line class="line" x1="0" x2="80" y1="40" y2="40" /><line class="line" x1="40" x2="40" y1="0" y2="80" /><line class="line" x1="0" x2="80" y1="50" y2="50" /><line class="line" x1="50" x2="50" y1="0" y2="80" /><line class="line" x1="0" x2="80" y1="60" y2="60" /><line class="line" x1="60" x2="60" y1="0" y2="80" /><line class="line" x1="0" x2="80" y1="70" y2="70" /><line class="line" x1="70" x2="70" y1="0" y2="80" /><line class="line" x1="0" x2="80" y1="80" y2="80" /><line class="line" x1="80" x2="80" y1="0" y2="80" /></g><g id="g11"><rect class="background" height="100%" width="100%" x="0" y="0" /><rect class="redsquare" height="40" width="40" x="20" y="20" /><rect class="back" height="60" width="60" x="10" y="10" /><rect class="subseg" height="40" width="40" x="10" y="30" /><rect class="subred" height="20" width="20" x="20" y="40" /><line class="line" x1="0" x2="80" y1="0" y2="0" /><line class="line" x1="0" x2="0" y1="0" y2="80" /><line class="line" x1="0" x2="80" y1="10" y2="10" /><line class="line" x1="10" x2="10" y1="0" y2="80" /><line class="line" x1="0" x2="80" y1="20" y2="20" /><line class="line" x1="20" x2="20" y1="0" y2="80" /><line class="line" x1="0" x2="80" y1="30" y2="30" /><line class="line" x1="30" x2="30" y1="0" y2="80" /><line class="line" x1="0" x2="80" y1="40" y2="40" /><line class="line" x1="40" x2="40" y1="0" y2="80" /><line class="line" x1="0" x2="80" y1="50" y2="50" /><line class="line" x1="50" x2="50" y1="0" y2="80" /><line class="line" x1="0" x2="80" y1="60" y2="60" /><line class="line" x1="60" x2="60" y1="0" y2="80" /><line class="line" x1="0" x2="80" y1="70" y2="70" /><line class="line" x1="70" x2="70" y1="0" y2="80" /><line class="line" x1="0" x2="80" y1="80" y2="80" /><line class="line" x1="80" x2="80" y1="0" y2="80" /></g><g id="g10"><rect class="background" height="100%" width="100%" x="0" y="0" /><rect class="redsquare" height="40" width="40" x="20" y="20" /><rect class="back" height="60" width="60" x="10" y="10" /><rect class="subseg" height="40" width="40" x="30" y="10" /><rect class="subred" height="20" width="20" x="40" y="20" /><line class="line" x1="0" x2="80" y1="0" y2="0" /><line class="line" x1="0" x2="0" y1="0" y2="80" /><line class="line" x1="0" x2="80" y1="10" y2="10" /><line class="line" x1="10" x2="10" y1="0" y2="80" /><line class="line" x1="0" x2="80" y1="20" y2="20" /><line class="line" x1="20" x2="20" y1="0" y2="80" /><line class="line" x1="0" x2="80" y1="30" y2="30" /><line class="line" x1="30" x2="30" y1="0" y2="80" /><line class="line" x1="0" x2="80" y1="40" y2="40" /><line class="line" x1="40" x2="40" y1="0" y2="80" /><line class="line" x1="0" x2="80" y1="50" y2="50" /><line class="line" x1="50" x2="50" y1="0" y2="80" /><line class="line" x1="0" x2="80" y1="60" y2="60" /><line class="line" x1="60" x2="60" y1="0" y2="80" /><line class="line" x1="0" x2="80" y1="70" y2="70" /><line class="line" x1="70" x2="70" y1="0" y2="80" /><line class="line" x1="0" x2="80" y1="80" y2="80" /><line class="line" x1="80" x2="80" y1="0" y2="80" /></g><g id="g9"><rect class="background" height="100%" width="100%" x="0" y="0" /><rect class="redsquare" height="40" width="40" x="20" y="20" /><rect class="back" height="60" width="60" x="10" y="10" /><rect class="subseg" height="40" width="40" x="10" y="10" /><rect class="subred" height="20" width="20" x="20" y="20" /><line class="line" x1="0" x2="80" y1="0" y2="0" /><line class="line" x1="0" x2="0" y1="0" y2="80" /><line class="line" x1="0" x2="80" y1="10" y2="10" /><line class="line" x1="10" x2="10" y1="0" y2="80" /><line class="line" x1="0" x2="80" y1="20" y2="20" /><line class="line" x1="20" x2="20" y1="0" y2="80" /><line class="line" x1="0" x2="80" y1="30" y2="30" /><line class="line" x1="30" x2="30" y1="0" y2="80" /><line class="line" x1="0" x2="80" y1="40" y2="40" /><line class="line" x1="40" x2="40" y1="0" y2="80" /><line class="line" x1="0" x2="80" y1="50" y2="50" /><line class="line" x1="50" x2="50" y1="0" y2="80" /><line class="line" x1="0" x2="80" y1="60" y2="60" /><line class="line" x1="60" x2="60" y1="0" y2="80" /><line class="line" x1="0" x2="80" y1="70" y2="70" /><line class="line" x1="70" x2="70" y1="0" y2="80" /><line class="line" x1="0" x2="80" y1="80" y2="80" /><line class="line" x1="80" x2="80" y1="0" y2="80" /></g><g id="g8"><rect class="background" height="100%" width="100%" x="0" y="0" /><rect class="redsquare" height="60" width="60" x="10" y="10" /><rect class="back" height="80" width="80" x="0" y="0" /><rect class="subseg" height="40" width="40" x="40" y="40" /><rect class="subred" height="20" width="20" x="50" y="50" /><line class="line" x1="0" x2="80" y1="0" y2="0" /><line class="line" x1="0" x2="0" y1="0" y2="80" /><line class="line" x1="0" x2="80" y1="10" y2="10" /><line class="line" x1="10" x2="10" y1="0" y2="80" /><line class="line" x1="0" x2="80" y1="20" y2="20" /><line class="line" x1="20" x2="20" y1="0" y2="80" /><line class="line" x1="0" x2="80" y1="30" y2="30" /><line class="line" x1="30" x2="30" y1="0" y2="80" /><line class="line" x1="0" x2="80" y1="40" y2="40" /><line class="line" x1="40" x2="40" y1="0" y2="80" /><line class="line" x1="0" x2="80" y1="50" y2="50" /><line class="line" x1="50" x2="50" y1="0" y2="80" /><line class="line" x1="0" x2="80" y1="60" y2="60" /><line class="line" x1="60" x2="60" y1="0" y2="80" /><line class="line" x1="0" x2="80" y1="70" y2="70" /><line class="line" x1="70" x2="70" y1="0" y2="80" /><line class="line" x1="0" x2="80" y1="80" y2="80" /><line class="line" x1="80" x2="80" y1="0" y2="80" /></g><g id="g7"><rect class="background" height="100%" width="100%" x="0" y="0" /><rect class="redsquare" height="60" width="60" x="10" y="10" /><rect class="back" height="80" width="80" x="0" y="0" /><rect class="subseg" height="40" width="40" x="20" y="40" /><rect class="subred" height="20" width="20" x="30" y="50" /><line class="line" x1="0" x2="80" y1="0" y2="0" /><line class="line" x1="0" x2="0" y1="0" y2="80" /><line class="line" x1="0" x2="80" y1="10" y2="10" /><line class="line" x1="10" x2="10" y1="0" y2="80" /><line class="line" x1="0" x2="80" y1="20" y2="20" /><line class="line" x1="20" x2="20" y1="0" y2="80" /><line class="line" x1="0" x2="80" y1="30" y2="30" /><line class="line" x1="30" x2="30" y1="0" y2="80" /><line class="line" x1="0" x2="80" y1="40" y2="40" /><line class="line" x1="40" x2="40" y1="0" y2="80" /><line class="line" x1="0" x2="80" y1="50" y2="50" /><line class="line" x1="50" x2="50" y1="0" y2="80" /><line class="line" x1="0" x2="80" y1="60" y2="60" /><line class="line" x1="60" x2="60" y1="0" y2="80" /><line class="line" x1="0" x2="80" y1="70" y2="70" /><line class="line" x1="70" x2="70" y1="0" y2="80" /><line class="line" x1="0" x2="80" y1="80" y2="80" /><line class="line" x1="80" x2="80" y1="0" y2="80" /></g><g id="g6"><rect class="background" height="100%" width="100%" x="0" y="0" /><rect class="redsquare" height="60" width="60" x="10" y="10" /><rect class="back" height="80" width="80" x="0" y="0" /><rect class="subseg" height="40" width="40" x="0" y="40" /><rect class="subred" height="20" width="20" x="10" y="50" /><line class="line" x1="0" x2="80" y1="0" y2="0" /><line class="line" x1="0" x2="0" y1="0" y2="80" /><line class="line" x1="0" x2="80" y1="10" y2="10" /><line class="line" x1="10" x2="10" y1="0" y2="80" /><line class="line" x1="0" x2="80" y1="20" y2="20" /><line class="line" x1="20" x2="20" y1="0" y2="80" /><line class="line" x1="0" x2="80" y1="30" y2="30" /><line class="line" x1="30" x2="30" y1="0" y2="80" /><line class="line" x1="0" x2="80" y1="40" y2="40" /><line class="line" x1="40" x2="40" y1="0" y2="80" /><line class="line" x1="0" x2="80" y1="50" y2="50" /><line class="line" x1="50" x2="50" y1="0" y2="80" /><line class="line" x1="0" x2="80" y1="60" y2="60" /><line class="line" x1="60" x2="60" y1="0" y2="80" /><line class="line" x1="0" x2="80" y1="70" y2="70" /><line class="line" x1="70" x2="70" y1="0" y2="80" /><line class="line" x1="0" x2="80" y1="80" y2="80" /><line class="line" x1="80" x2="80" y1="0" y2="80" /></g><g id="g5"><rect class="background" height="100%" width="100%" x="0" y="0" /><rect class="redsquare" height="60" width="60" x="10" y="10" /><rect class="back" height="80" width="80" x="0" y="0" /><rect class="subseg" height="40" width="40" x="40" y="20" /><rect class="subred" height="20" width="20" x="50" y="30" /><line class="line" x1="0" x2="80" y1="0" y2="0" /><line class="line" x1="0" x2="0" y1="0" y2="80" /><line class="line" x1="0" x2="80" y1="10" y2="10" /><line class="line" x1="10" x2="10" y1="0" y2="80" /><line class="line" x1="0" x2="80" y1="20" y2="20" /><line class="line" x1="20" x2="20" y1="0" y2="80" /><line class="line" x1="0" x2="80" y1="30" y2="30" /><line class="line" x1="30" x2="30" y1="0" y2="80" /><line class="line" x1="0" x2="80" y1="40" y2="40" /><line class="line" x1="40" x2="40" y1="0" y2="80" /><line class="line" x1="0" x2="80" y1="50" y2="50" /><line class="line" x1="50" x2="50" y1="0" y2="80" /><line class="line" x1="0" x2="80" y1="60" y2="60" /><line class="line" x1="60" x2="60" y1="0" y2="80" /><line class="line" x1="0" x2="80" y1="70" y2="70" /><line class="line" x1="70" x2="70" y1="0" y2="80" /><line class="line" x1="0" x2="80" y1="80" y2="80" /><line class="line" x1="80" x2="80" y1="0" y2="80" /></g><g id="g4"><rect class="background" height="100%" width="100%" x="0" y="0" /><rect class="redsquare" height="60" width="60" x="10" y="10" /><rect class="back" height="80" width="80" x="0" y="0" /><rect class="subseg" height="40" width="40" x="20" y="20" /><rect class="subred" height="20" width="20" x="30" y="30" /><line class="line" x1="0" x2="80" y1="0" y2="0" /><line class="line" x1="0" x2="0" y1="0" y2="80" /><line class="line" x1="0" x2="80" y1="10" y2="10" /><line class="line" x1="10" x2="10" y1="0" y2="80" /><line class="line" x1="0" x2="80" y1="20" y2="20" /><line class="line" x1="20" x2="20" y1="0" y2="80" /><line class="line" x1="0" x2="80" y1="30" y2="30" /><line class="line" x1="30" x2="30" y1="0" y2="80" /><line class="line" x1="0" x2="80" y1="40" y2="40" /><line class="line" x1="40" x2="40" y1="0" y2="80" /><line class="line" x1="0" x2="80" y1="50" y2="50" /><line class="line" x1="50" x2="50" y1="0" y2="80" /><line class="line" x1="0" x2="80" y1="60" y2="60" /><line class="line" x1="60" x2="60" y1="0" y2="80" /><line class="line" x1="0" x2="80" y1="70" y2="70" /><line class="line" x1="70" x2="70" y1="0" y2="80" /><line class="line" x1="0" x2="80" y1="80" y2="80" /><line class="line" x1="80" x2="80" y1="0" y2="80" /></g><g id="g3"><rect class="background" height="100%" width="100%" x="0" y="0" /><rect class="redsquare" height="60" width="60" x="10" y="10" /><rect class="back" height="80" width="80" x="0" y="0" /><rect class="subseg" height="40" width="40" x="0" y="20" /><rect class="subred" height="20" width="20" x="10" y="30" /><line class="line" x1="0" x2="80" y1="0" y2="0" /><line class="line" x1="0" x2="0" y1="0" y2="80" /><line class="line" x1="0" x2="80" y1="10" y2="10" /><line class="line" x1="10" x2="10" y1="0" y2="80" /><line class="line" x1="0" x2="80" y1="20" y2="20" /><line class="line" x1="20" x2="20" y1="0" y2="80" /><line class="line" x1="0" x2="80" y1="30" y2="30" /><line class="line" x1="30" x2="30" y1="0" y2="80" /><line class="line" x1="0" x2="80" y1="40" y2="40" /><line class="line" x1="40" x2="40" y1="0" y2="80" /><line class="line" x1="0" x2="80" y1="50" y2="50" /><line class="line" x1="50" x2="50" y1="0" y2="80" /><line class="line" x1="0" x2="80" y1="60" y2="60" /><line class="line" x1="60" x2="60" y1="0" y2="80" /><line class="line" x1="0" x2="80" y1="70" y2="70" /><line class="line" x1="70" x2="70" y1="0" y2="80" /><line class="line" x1="0" x2="80" y1="80" y2="80" /><line class="line" x1="80" x2="80" y1="0" y2="80" /></g><g id="g2"><rect class="background" height="100%" width="100%" x="0" y="0" /><rect class="redsquare" height="60" width="60" x="10" y="10" /><rect class="back" height="80" width="80" x="0" y="0" /><rect class="subseg" height="40" width="40" x="40" y="0" /><rect class="subred" height="20" width="20" x="50" y="10" /><line class="line" x1="0" x2="80" y1="0" y2="0" /><line class="line" x1="0" x2="0" y1="0" y2="80" /><line class="line" x1="0" x2="80" y1="10" y2="10" /><line class="line" x1="10" x2="10" y1="0" y2="80" /><line class="line" x1="0" x2="80" y1="20" y2="20" /><line class="line" x1="20" x2="20" y1="0" y2="80" /><line class="line" x1="0" x2="80" y1="30" y2="30" /><line class="line" x1="30" x2="30" y1="0" y2="80" /><line class="line" x1="0" x2="80" y1="40" y2="40" /><line class="line" x1="40" x2="40" y1="0" y2="80" /><line class="line" x1="0" x2="80" y1="50" y2="50" /><line class="line" x1="50" x2="50" y1="0" y2="80" /><line class="line" x1="0" x2="80" y1="60" y2="60" /><line class="line" x1="60" x2="60" y1="0" y2="80" /><line class="line" x1="0" x2="80" y1="70" y2="70" /><line class="line" x1="70" x2="70" y1="0" y2="80" /><line class="line" x1="0" x2="80" y1="80" y2="80" /><line class="line" x1="80" x2="80" y1="0" y2="80" /></g><g id="g1"><rect class="background" height="100%" width="100%" x="0" y="0" /><rect class="redsquare" height="60" width="60" x="10" y="10" /><rect class="back" height="80" width="80" x="0" y="0" /><rect class="subseg" height="40" width="40" x="20" y="0" /><rect class="subred" height="20" width="20" x="30" y="10" /><line class="line" x1="0" x2="80" y1="0" y2="0" /><line class="line" x1="0" x2="0" y1="0" y2="80" /><line class="line" x1="0" x2="80" y1="10" y2="10" /><line class="line" x1="10" x2="10" y1="0" y2="80" /><line class="line" x1="0" x2="80" y1="20" y2="20" /><line class="line" x1="20" x2="20" y1="0" y2="80" /><line class="line" x1="0" x2="80" y1="30" y2="30" /><line class="line" x1="30" x2="30" y1="0" y2="80" /><line class="line" x1="0" x2="80" y1="40" y2="40" /><line class="line" x1="40" x2="40" y1="0" y2="80" /><line class="line" x1="0" x2="80" y1="50" y2="50" /><line class="line" x1="50" x2="50" y1="0" y2="80" /><line class="line" x1="0" x2="80" y1="60" y2="60" /><line class="line" x1="60" x2="60" y1="0" y2="80" /><line class="line" x1="0" x2="80" y1="70" y2="70" /><line class="line" x1="70" x2="70" y1="0" y2="80" /><line class="line" x1="0" x2="80" y1="80" y2="80" /><line class="line" x1="80" x2="80" y1="0" y2="80" /></g><g id="g0"><rect class="background" height="100%" width="100%" x="0" y="0" /><rect class="redsquare" height="60" width="60" x="10" y="10" /><rect class="back" height="80" width="80" x="0" y="0" /><rect class="subseg" height="40" width="40" x="0" y="0" /><rect class="subred" height="20" width="20" x="10" y="10" /><line class="line" x1="0" x2="80" y1="0" y2="0" /><line class="line" x1="0" x2="0" y1="0" y2="80" /><line class="line" x1="0" x2="80" y1="10" y2="10" /><line class="line" x1="10" x2="10" y1="0" y2="80" /><line class="line" x1="0" x2="80" y1="20" y2="20" /><line class="line" x1="20" x2="20" y1="0" y2="80" /><line class="line" x1="0" x2="80" y1="30" y2="30" /><line class="line" x1="30" x2="30" y1="0" y2="80" /><line class="line" x1="0" x2="80" y1="40" y2="40" /><line class="line" x1="40" x2="40" y1="0" y2="80" /><line class="line" x1="0" x2="80" y1="50" y2="50" /><line class="line" x1="50" x2="50" y1="0" y2="80" /><line class="line" x1="0" x2="80" y1="60" y2="60" /><line class="line" x1="60" x2="60" y1="0" y2="80" /><line class="line" x1="0" x2="80" y1="70" y2="70" /><line class="line" x1="70" x2="70" y1="0" y2="80" /><line class="line" x1="0" x2="80" y1="80" y2="80" /><line class="line" x1="80" x2="80" y1="0" y2="80" /></g></g></svg>